<svg width="163" height="40" viewBox="0 0 163 40" fill="none" xmlns="http://www.w3.org/2000/svg">
<path d="M54.3169 3.4H56.1169V14.434H62.9389V16H54.3169V3.4ZM73.2514 11.284C73.2514 11.416 73.2394 11.59 73.2154 11.806H65.4754C65.5834 12.646 65.9494 13.324 66.5734 13.84C67.2094 14.344 67.9954 14.596 68.9314 14.596C70.0714 14.596 70.9894 14.212 71.6854 13.444L72.6394 14.56C72.2074 15.064 71.6674 15.448 71.0194 15.712C70.3834 15.976 69.6694 16.108 68.8774 16.108C67.8694 16.108 66.9754 15.904 66.1954 15.496C65.4154 15.076 64.8094 14.494 64.3774 13.75C63.9574 13.006 63.7474 12.166 63.7474 11.23C63.7474 10.306 63.9514 9.472 64.3594 8.728C64.7794 7.984 65.3494 7.408 66.0694 7C66.8014 6.58 67.6234 6.37 68.5354 6.37C69.4474 6.37 70.2574 6.58 70.9654 7C71.6854 7.408 72.2434 7.984 72.6394 8.728C73.0474 9.472 73.2514 10.324 73.2514 11.284ZM68.5354 7.828C67.7074 7.828 67.0114 8.08 66.4474 8.584C65.8954 9.088 65.5714 9.748 65.4754 10.564H71.5954C71.4994 9.76 71.1694 9.106 70.6054 8.602C70.0534 8.086 69.3634 7.828 68.5354 7.828ZM78.8612 6.37C80.1812 6.37 81.1892 6.694 81.8852 7.342C82.5932 7.99 82.9472 8.956 82.9472 10.24V16H81.3092V14.74C81.0212 15.184 80.6072 15.526 80.0672 15.766C79.5392 15.994 78.9092 16.108 78.1772 16.108C77.1092 16.108 76.2512 15.85 75.6032 15.334C74.9672 14.818 74.6492 14.14 74.6492 13.3C74.6492 12.46 74.9552 11.788 75.5672 11.284C76.1792 10.768 77.1512 10.51 78.4832 10.51H81.2192V10.168C81.2192 9.424 81.0032 8.854 80.5712 8.458C80.1392 8.062 79.5032 7.864 78.6632 7.864C78.0992 7.864 77.5472 7.96 77.0072 8.152C76.4672 8.332 76.0112 8.578 75.6392 8.89L74.9192 7.594C75.4112 7.198 75.9992 6.898 76.6832 6.694C77.3672 6.478 78.0932 6.37 78.8612 6.37ZM78.4652 14.776C79.1252 14.776 79.6952 14.632 80.1752 14.344C80.6552 14.044 81.0032 13.624 81.2192 13.084V11.752H78.5552C77.0912 11.752 76.3592 12.244 76.3592 13.228C76.3592 13.708 76.5452 14.086 76.9172 14.362C77.2892 14.638 77.8052 14.776 78.4652 14.776ZM87.801 8.062C88.101 7.51 88.545 7.09 89.133 6.802C89.721 6.514 90.435 6.37 91.275 6.37V8.044C91.179 8.032 91.047 8.026 90.879 8.026C89.943 8.026 89.205 8.308 88.665 8.872C88.137 9.424 87.873 10.216 87.873 11.248V16H86.145V6.46H87.801V8.062ZM98.4988 6.37C99.7108 6.37 100.671 6.724 101.379 7.432C102.099 8.128 102.459 9.154 102.459 10.51V16H100.731V10.708C100.731 9.784 100.509 9.088 100.065 8.62C99.6208 8.152 98.9848 7.918 98.1568 7.918C97.2208 7.918 96.4828 8.194 95.9428 8.746C95.4028 9.286 95.1328 10.066 95.1328 11.086V16H93.4048V6.46H95.0608V7.9C95.4088 7.408 95.8768 7.03 96.4648 6.766C97.0648 6.502 97.7428 6.37 98.4988 6.37ZM62.3449 32.85H55.6489L54.2629 36H52.4089L58.1149 23.4H59.8969L65.6209 36H63.7309L62.3449 32.85ZM61.7149 31.41L58.9969 25.236L56.2789 31.41H61.7149ZM71.3186 36.108C70.3466 36.108 69.4766 35.898 68.7086 35.478C67.9526 35.058 67.3586 34.482 66.9266 33.75C66.4946 33.006 66.2786 32.166 66.2786 31.23C66.2786 30.294 66.4946 29.46 66.9266 28.728C67.3586 27.984 67.9526 27.408 68.7086 27C69.4766 26.58 70.3466 26.37 71.3186 26.37C72.1826 26.37 72.9506 26.544 73.6226 26.892C74.3066 27.24 74.8346 27.744 75.2066 28.404L73.8926 29.25C73.5926 28.794 73.2206 28.452 72.7766 28.224C72.3326 27.996 71.8406 27.882 71.3006 27.882C70.6766 27.882 70.1126 28.02 69.6086 28.296C69.1166 28.572 68.7266 28.968 68.4386 29.484C68.1626 29.988 68.0246 30.57 68.0246 31.23C68.0246 31.902 68.1626 32.496 68.4386 33.012C68.7266 33.516 69.1166 33.906 69.6086 34.182C70.1126 34.458 70.6766 34.596 71.3006 34.596C71.8406 34.596 72.3326 34.482 72.7766 34.254C73.2206 34.026 73.5926 33.684 73.8926 33.228L75.2066 34.056C74.8346 34.716 74.3066 35.226 73.6226 35.586C72.9506 35.934 72.1826 36.108 71.3186 36.108ZM80.9178 26.37C82.2378 26.37 83.2458 26.694 83.9418 27.342C84.6498 27.99 85.0038 28.956 85.0038 30.24V36H83.3658V34.74C83.0778 35.184 82.6638 35.526 82.1238 35.766C81.5958 35.994 80.9658 36.108 80.2338 36.108C79.1658 36.108 78.3078 35.85 77.6598 35.334C77.0238 34.818 76.7058 34.14 76.7058 33.3C76.7058 32.46 77.0118 31.788 77.6238 31.284C78.2358 30.768 79.2078 30.51 80.5398 30.51H83.2758V30.168C83.2758 29.424 83.0598 28.854 82.6278 28.458C82.1958 28.062 81.5598 27.864 80.7198 27.864C80.1558 27.864 79.6038 27.96 79.0638 28.152C78.5238 28.332 78.0678 28.578 77.6958 28.89L76.9758 27.594C77.4678 27.198 78.0558 26.898 78.7398 26.694C79.4238 26.478 80.1498 26.37 80.9178 26.37ZM80.5218 34.776C81.1818 34.776 81.7518 34.632 82.2318 34.344C82.7118 34.044 83.0598 33.624 83.2758 33.084V31.752H80.6118C79.1478 31.752 78.4158 32.244 78.4158 33.228C78.4158 33.708 78.6018 34.086 78.9738 34.362C79.3458 34.638 79.8618 34.776 80.5218 34.776ZM97.2544 22.644V36H95.5984V34.488C95.2144 35.016 94.7284 35.418 94.1404 35.694C93.5524 35.97 92.9044 36.108 92.1964 36.108C91.2724 36.108 90.4444 35.904 89.7124 35.496C88.9804 35.088 88.4044 34.518 87.9844 33.786C87.5764 33.042 87.3724 32.19 87.3724 31.23C87.3724 30.27 87.5764 29.424 87.9844 28.692C88.4044 27.96 88.9804 27.39 89.7124 26.982C90.4444 26.574 91.2724 26.37 92.1964 26.37C92.8804 26.37 93.5104 26.502 94.0864 26.766C94.6624 27.018 95.1424 27.396 95.5264 27.9V22.644H97.2544ZM92.3404 34.596C92.9404 34.596 93.4864 34.458 93.9784 34.182C94.4704 33.894 94.8544 33.498 95.1304 32.994C95.4064 32.478 95.5444 31.89 95.5444 31.23C95.5444 30.57 95.4064 29.988 95.1304 29.484C94.8544 28.968 94.4704 28.572 93.9784 28.296C93.4864 28.02 92.9404 27.882 92.3404 27.882C91.7284 27.882 91.1764 28.02 90.6844 28.296C90.2044 28.572 89.8204 28.968 89.5324 29.484C89.2564 29.988 89.1184 30.57 89.1184 31.23C89.1184 31.89 89.2564 32.478 89.5324 32.994C89.8204 33.498 90.2044 33.894 90.6844 34.182C91.1764 34.458 91.7284 34.596 92.3404 34.596ZM109.146 31.284C109.146 31.416 109.134 31.59 109.11 31.806H101.37C101.478 32.646 101.844 33.324 102.468 33.84C103.104 34.344 103.89 34.596 104.826 34.596C105.966 34.596 106.884 34.212 107.58 33.444L108.534 34.56C108.102 35.064 107.562 35.448 106.914 35.712C106.278 35.976 105.564 36.108 104.772 36.108C103.764 36.108 102.87 35.904 102.09 35.496C101.31 35.076 100.704 34.494 100.272 33.75C99.8519 33.006 99.6419 32.166 99.6419 31.23C99.6419 30.306 99.8459 29.472 100.254 28.728C100.674 27.984 101.244 27.408 101.964 27C102.696 26.58 103.518 26.37 104.43 26.37C105.342 26.37 106.152 26.58 106.86 27C107.58 27.408 108.138 27.984 108.534 28.728C108.942 29.472 109.146 30.324 109.146 31.284ZM104.43 27.828C103.602 27.828 102.906 28.08 102.342 28.584C101.79 29.088 101.466 29.748 101.37 30.564H107.49C107.394 29.76 107.064 29.106 106.5 28.602C105.948 28.086 105.258 27.828 104.43 27.828ZM123.479 26.37C124.679 26.37 125.627 26.718 126.323 27.414C127.031 28.11 127.385 29.142 127.385 30.51V36H125.657V30.708C125.657 29.784 125.441 29.088 125.009 28.62C124.589 28.152 123.983 27.918 123.191 27.918C122.315 27.918 121.619 28.194 121.103 28.746C120.587 29.286 120.329 30.066 120.329 31.086V36H118.601V30.708C118.601 29.784 118.385 29.088 117.953 28.62C117.533 28.152 116.927 27.918 116.135 27.918C115.259 27.918 114.563 28.194 114.047 28.746C113.531 29.286 113.273 30.066 113.273 31.086V36H111.545V26.46H113.201V27.882C113.549 27.39 114.005 27.018 114.569 26.766C115.133 26.502 115.775 26.37 116.495 26.37C117.239 26.37 117.899 26.52 118.475 26.82C119.051 27.12 119.495 27.558 119.807 28.134C120.167 27.582 120.665 27.15 121.301 26.838C121.949 26.526 122.675 26.37 123.479 26.37ZM138.831 26.46L134.205 36.954C133.797 37.926 133.317 38.61 132.765 39.006C132.225 39.402 131.571 39.6 130.803 39.6C130.335 39.6 129.879 39.522 129.435 39.366C129.003 39.222 128.643 39.006 128.355 38.718L129.093 37.422C129.585 37.89 130.155 38.124 130.803 38.124C131.223 38.124 131.571 38.01 131.847 37.782C132.135 37.566 132.393 37.188 132.621 36.648L132.927 35.982L128.715 26.46H130.515L133.845 34.092L137.139 26.46H138.831Z" fill="#393E46"/>
<rect width="44.8012" height="39" rx="5" fill="#00ADB5"/>
<rect x="7.3446" y="7.3421" width="36.9565" height="31.1579" rx="4.5" fill="#F6F8FD" stroke="url(#paint0_linear)"/>
<rect x="13.6892" y="13.6842" width="31.1119" height="25.3158" rx="5" fill="#00ADB5"/>
<rect x="21.0338" y="20.3421" width="23.2673" height="18.1579" rx="4.5" fill="#F6F8FD" stroke="url(#paint1_linear)"/>
<defs>
<linearGradient id="paint0_linear" x1="21.5" y1="23" x2="29.5" y2="32.5" gradientUnits="userSpaceOnUse">
<stop stop-color="white"/>
<stop offset="1" stop-color="#00ADB5" stop-opacity="0"/>
</linearGradient>
<linearGradient id="paint1_linear" x1="33" y1="29" x2="43.5" y2="39" gradientUnits="userSpaceOnUse">
<stop stop-color="white"/>
<stop offset="1" stop-color="#00ADB5" stop-opacity="0"/>
</linearGradient>
</defs>
</svg>
